<svg xmlns="http://www.w3.org/2000/svg" xmlns:xlink="http://www.w3.org/1999/xlink" width="500" zoomAndPan="magnify" viewBox="0 0 375 374.999991" height="500" preserveAspectRatio="xMidYMid meet" version="1.0"><defs><clipPath id="9449a090bb"><path d="M 33.230469 56.355469 L 341.480469 56.355469 L 341.480469 318.855469 L 33.230469 318.855469 Z M 33.230469 56.355469 " clip-rule="nonzero"/></clipPath></defs><g clip-path="url(#9449a090bb)"><path fill="#0d6efc" d="M 312.433594 56.464844 L 62.277344 56.464844 C 46.265625 56.464844 33.230469 69.523438 33.230469 85.558594 L 33.230469 289.648438 C 33.230469 305.6875 46.265625 318.746094 62.277344 318.746094 L 312.433594 318.746094 C 328.441406 318.746094 341.480469 305.6875 341.480469 289.648438 L 341.480469 85.558594 C 341.480469 69.523438 328.441406 56.464844 312.433594 56.464844 Z M 56.867188 85.558594 C 56.867188 82.613281 59.332031 80.140625 62.277344 80.140625 L 312.433594 80.140625 C 315.375 80.140625 317.84375 82.613281 317.84375 85.558594 L 317.84375 89.332031 L 190.140625 217.253906 C 188.621094 218.777344 186.089844 218.777344 184.570312 217.253906 L 56.867188 89.332031 Z M 317.84375 289.679688 C 317.84375 292.628906 315.375 295.101562 312.433594 295.101562 L 62.277344 295.101562 C 59.332031 295.101562 56.867188 292.628906 56.867188 289.679688 L 56.867188 122.800781 L 167.832031 233.960938 C 173.019531 239.15625 179.949219 242.042969 187.324219 242.042969 C 194.695312 242.042969 201.625 239.1875 206.8125 233.960938 L 317.78125 122.800781 L 317.78125 289.679688 Z M 317.84375 289.679688 " fill-opacity="1" fill-rule="nonzero"/></g></svg>