<svg xmlns="http://www.w3.org/2000/svg" xmlns:xlink="http://www.w3.org/1999/xlink" width="500" zoomAndPan="magnify" viewBox="0 0 375 374.999991" height="500" preserveAspectRatio="xMidYMid meet" version="1.0"><defs><clipPath id="223c45e32b"><path d="M 23 26.25 L 352 26.25 L 352 348 L 23 348 Z M 23 26.25 " clip-rule="nonzero"/></clipPath></defs><g clip-path="url(#223c45e32b)"><path fill="#0d6efc" d="M 239.410156 346.960938 C 242.460938 345.945312 245.480469 344.835938 248.46875 343.640625 C 251.457031 342.441406 254.40625 341.160156 257.316406 339.789062 C 260.230469 338.417969 263.097656 336.964844 265.925781 335.425781 C 268.75 333.886719 271.527344 332.265625 274.261719 330.5625 C 276.992188 328.863281 279.671875 327.082031 282.296875 325.21875 C 284.921875 323.359375 287.492188 321.425781 290.007812 319.414062 C 292.519531 317.402344 294.972656 315.320312 297.363281 313.164062 C 299.753906 311.011719 302.078125 308.785156 304.339844 306.496094 C 306.597656 304.203125 308.789062 301.847656 310.910156 299.425781 C 313.035156 297.003906 315.082031 294.523438 317.058594 291.984375 C 319.035156 289.441406 320.933594 286.84375 322.757812 284.191406 C 324.582031 281.539062 326.328125 278.835938 327.992188 276.078125 C 329.65625 273.324219 331.238281 270.523438 332.738281 267.671875 C 334.238281 264.824219 335.65625 261.933594 336.988281 259.003906 C 338.316406 256.070312 339.5625 253.101562 340.71875 250.097656 C 341.875 247.09375 342.941406 244.054688 343.917969 240.988281 C 344.898438 237.921875 345.785156 234.828125 346.582031 231.707031 C 347.378906 228.585938 348.082031 225.445312 348.695312 222.285156 C 349.308594 219.125 349.824219 215.949219 350.25 212.753906 C 350.675781 209.5625 351.007812 206.363281 351.246094 203.152344 C 351.484375 199.9375 351.628906 196.722656 351.675781 193.503906 C 351.726562 190.285156 351.679688 187.066406 351.539062 183.847656 C 351.402344 180.632812 351.167969 177.421875 350.835938 174.21875 C 350.507812 171.015625 350.085938 167.824219 349.570312 164.644531 C 349.054688 161.464844 348.445312 158.304688 347.746094 155.164062 C 347.042969 152.019531 346.25 148.902344 345.367188 145.804688 C 344.480469 142.707031 343.507812 139.640625 342.441406 136.601562 C 341.378906 133.5625 340.226562 130.558594 338.984375 127.585938 C 337.742188 124.617188 336.417969 121.683594 335.003906 118.792969 C 333.589844 115.898438 332.09375 113.050781 330.511719 110.246094 C 328.933594 107.441406 327.273438 104.683594 325.53125 101.976562 C 323.789062 99.269531 321.96875 96.617188 320.070312 94.015625 C 318.171875 91.414062 316.199219 88.871094 314.152344 86.386719 C 312.105469 83.90625 309.984375 81.484375 307.796875 79.121094 C 305.605469 76.761719 303.351562 74.46875 301.027344 72.242188 C 298.703125 70.015625 296.316406 67.859375 293.863281 65.773438 C 291.414062 63.6875 288.902344 61.671875 286.335938 59.734375 C 283.765625 57.796875 281.140625 55.933594 278.464844 54.148438 C 275.785156 52.363281 273.058594 50.660156 270.28125 49.035156 C 267.5 47.410156 264.679688 45.871094 261.808594 44.414062 C 258.941406 42.953125 256.03125 41.582031 253.082031 40.292969 C 250.132812 39.007812 247.148438 37.808594 244.128906 36.695312 C 241.109375 35.585938 238.058594 34.5625 234.980469 33.628906 C 231.898438 32.699219 228.796875 31.855469 225.667969 31.109375 C 222.539062 30.359375 219.390625 29.699219 216.222656 29.136719 C 213.054688 28.570312 209.871094 28.101562 206.675781 27.722656 C 203.480469 27.347656 200.277344 27.0625 197.066406 26.875 C 193.855469 26.683594 190.640625 26.589844 187.421875 26.589844 C 184.203125 26.589844 180.988281 26.683594 177.777344 26.875 C 174.566406 27.0625 171.363281 27.347656 168.167969 27.722656 C 164.972656 28.101562 161.789062 28.570312 158.621094 29.136719 C 155.453125 29.699219 152.304688 30.359375 149.175781 31.109375 C 146.046875 31.855469 142.945312 32.699219 139.863281 33.628906 C 136.785156 34.5625 133.734375 35.585938 130.714844 36.695312 C 127.695312 37.808594 124.710938 39.007812 121.761719 40.292969 C 118.8125 41.582031 115.902344 42.953125 113.035156 44.414062 C 110.164062 45.871094 107.34375 47.410156 104.5625 49.035156 C 101.785156 50.660156 99.058594 52.363281 96.378906 54.148438 C 93.703125 55.933594 91.078125 57.796875 88.507812 59.734375 C 85.941406 61.671875 83.429688 63.6875 80.980469 65.773438 C 78.527344 67.859375 76.140625 70.015625 73.816406 72.242188 C 71.492188 74.46875 69.238281 76.761719 67.046875 79.121094 C 64.859375 81.484375 62.738281 83.90625 60.691406 86.386719 C 58.644531 88.871094 56.671875 91.414062 54.773438 94.015625 C 52.875 96.617188 51.054688 99.269531 49.3125 101.976562 C 47.570312 104.683594 45.910156 107.441406 44.332031 110.246094 C 42.75 113.050781 41.253906 115.898438 39.839844 118.792969 C 38.425781 121.683594 37.101562 124.617188 35.859375 127.585938 C 34.617188 130.558594 33.464844 133.5625 32.402344 136.601562 C 31.335938 139.640625 30.363281 142.707031 29.476562 145.804688 C 28.59375 148.902344 27.800781 152.019531 27.097656 155.164062 C 26.398438 158.304688 25.789062 161.464844 25.273438 164.644531 C 24.757812 167.824219 24.335938 171.015625 24.007812 174.21875 C 23.675781 177.421875 23.445312 180.632812 23.304688 183.847656 C 23.164062 187.066406 23.117188 190.285156 23.167969 193.503906 C 23.214844 196.722656 23.359375 199.9375 23.597656 203.152344 C 23.835938 206.363281 24.167969 209.5625 24.59375 212.753906 C 25.019531 215.949219 25.535156 219.125 26.148438 222.285156 C 26.761719 225.445312 27.464844 228.585938 28.261719 231.707031 C 29.058594 234.828125 29.945312 237.921875 30.925781 240.988281 C 31.902344 244.054688 32.96875 247.09375 34.125 250.097656 C 35.28125 253.101562 36.527344 256.070312 37.859375 259.003906 C 39.1875 261.933594 40.605469 264.824219 42.105469 267.671875 C 43.605469 270.523438 45.1875 273.324219 46.851562 276.078125 C 48.515625 278.835938 50.261719 281.539062 52.085938 284.191406 C 53.910156 286.84375 55.808594 289.441406 57.785156 291.984375 C 59.761719 294.523438 61.808594 297.003906 63.933594 299.425781 C 66.054688 301.847656 68.246094 304.203125 70.503906 306.496094 C 72.765625 308.789062 75.089844 311.011719 77.480469 313.164062 C 79.871094 315.320312 82.324219 317.402344 84.835938 319.414062 C 87.351562 321.425781 89.921875 323.359375 92.546875 325.222656 C 95.171875 327.082031 97.851562 328.863281 100.582031 330.5625 C 103.316406 332.265625 106.09375 333.886719 108.917969 335.425781 C 111.746094 336.964844 114.613281 338.417969 117.527344 339.789062 C 120.4375 341.160156 123.386719 342.441406 126.375 343.640625 C 129.363281 344.835938 132.382812 345.945312 135.433594 346.960938 C 143.675781 348.476562 146.628906 343.386719 146.628906 338.988281 C 146.628906 336.035156 146.628906 329.433594 146.628906 320.5 C 146.617188 319.917969 146.546875 319.339844 146.417969 318.773438 C 146.285156 318.203125 146.097656 317.652344 145.851562 317.125 C 145.601562 316.597656 145.304688 316.097656 144.953125 315.632812 C 144.601562 315.167969 144.207031 314.742188 143.765625 314.359375 C 143.324219 313.976562 142.847656 313.644531 142.339844 313.363281 C 141.828125 313.082031 141.292969 312.855469 140.734375 312.683594 C 140.179688 312.515625 139.609375 312.40625 139.027344 312.355469 C 138.445312 312.304688 137.867188 312.316406 137.289062 312.390625 C 99.515625 316.445312 91.207031 288.746094 91.207031 288.746094 C 83.71875 269.707031 72.9375 264.621094 72.9375 264.621094 C 58.035156 254.378906 74.035156 254.585938 74.035156 254.585938 C 76.644531 254.945312 79.175781 255.597656 81.632812 256.542969 C 84.09375 257.488281 86.410156 258.699219 88.589844 260.175781 C 90.769531 261.652344 92.753906 263.359375 94.539062 265.292969 C 96.328125 267.226562 97.871094 269.339844 99.171875 271.628906 C 99.65625 272.566406 100.183594 273.476562 100.75 274.363281 C 101.320312 275.25 101.929688 276.109375 102.578125 276.9375 C 103.226562 277.765625 103.914062 278.5625 104.636719 279.328125 C 105.359375 280.09375 106.117188 280.824219 106.910156 281.515625 C 107.703125 282.210938 108.523438 282.867188 109.378906 283.484375 C 110.230469 284.101562 111.109375 284.675781 112.015625 285.210938 C 112.925781 285.746094 113.855469 286.238281 114.808594 286.683594 C 115.761719 287.132812 116.730469 287.53125 117.722656 287.890625 C 118.714844 288.246094 119.71875 288.554688 120.738281 288.816406 C 121.757812 289.078125 122.785156 289.292969 123.828125 289.457031 C 124.867188 289.625 125.910156 289.738281 126.960938 289.808594 C 128.011719 289.875 129.0625 289.894531 130.113281 289.863281 C 131.167969 289.832031 132.214844 289.75 133.261719 289.621094 C 134.304688 289.492188 135.339844 289.316406 136.367188 289.089844 C 137.398438 288.863281 138.414062 288.589844 139.414062 288.265625 C 140.417969 287.945312 141.402344 287.578125 142.371094 287.164062 C 143.042969 286.921875 143.675781 286.597656 144.265625 286.191406 C 144.855469 285.785156 145.386719 285.3125 145.855469 284.769531 C 146.324219 284.226562 146.714844 283.636719 147.035156 282.992188 C 147.351562 282.351562 147.582031 281.679688 147.726562 280.976562 C 148.324219 278.328125 149.171875 275.761719 150.269531 273.28125 C 150.40625 272.992188 150.53125 272.699219 150.636719 272.394531 C 150.742188 272.09375 150.832031 271.789062 150.902344 271.476562 C 150.972656 271.164062 151.027344 270.851562 151.0625 270.535156 C 151.097656 270.214844 151.117188 269.898438 151.117188 269.578125 C 151.117188 269.257812 151.097656 268.941406 151.058594 268.621094 C 151.023438 268.304688 150.96875 267.988281 150.898438 267.679688 C 150.824219 267.367188 150.734375 267.0625 150.628906 266.761719 C 150.523438 266.457031 150.398438 266.164062 150.257812 265.878906 C 150.117188 265.589844 149.960938 265.3125 149.789062 265.042969 C 149.617188 264.773438 149.433594 264.515625 149.230469 264.265625 C 149.03125 264.019531 148.816406 263.78125 148.589844 263.558594 C 148.359375 263.332031 148.121094 263.125 147.871094 262.925781 C 147.617188 262.730469 147.355469 262.546875 147.082031 262.382812 C 146.8125 262.214844 146.53125 262.0625 146.242188 261.925781 C 145.953125 261.792969 145.65625 261.675781 145.351562 261.574219 C 145.050781 261.472656 144.742188 261.386719 144.429688 261.320312 C 112.359375 255.066406 82.621094 237.46875 82.621094 181.726562 C 82.574219 178.347656 82.789062 174.984375 83.273438 171.640625 C 83.757812 168.292969 84.5 165.007812 85.503906 161.78125 C 86.507812 158.550781 87.757812 155.425781 89.253906 152.394531 C 90.753906 149.363281 92.480469 146.472656 94.433594 143.714844 C 95.15625 142.742188 95.765625 141.703125 96.261719 140.597656 C 96.761719 139.492188 97.136719 138.347656 97.394531 137.160156 C 97.648438 135.976562 97.773438 134.777344 97.773438 133.566406 C 97.773438 132.351562 97.644531 131.15625 97.386719 129.96875 C 95.835938 122.179688 95.835938 114.390625 97.386719 106.601562 C 97.488281 106.085938 97.617188 105.574219 97.773438 105.074219 C 97.925781 104.570312 98.109375 104.078125 98.316406 103.59375 C 98.519531 103.113281 98.75 102.640625 99.007812 102.183594 C 99.261719 101.722656 99.542969 101.277344 99.84375 100.847656 C 100.144531 100.417969 100.46875 100.003906 100.8125 99.609375 C 101.15625 99.210938 101.523438 98.835938 101.90625 98.476562 C 102.289062 98.117188 102.691406 97.78125 103.109375 97.464844 C 103.53125 97.148438 103.964844 96.855469 104.414062 96.582031 C 104.863281 96.3125 105.328125 96.066406 105.800781 95.84375 C 106.277344 95.621094 106.765625 95.421875 107.261719 95.25 C 107.757812 95.078125 108.257812 94.933594 108.769531 94.8125 C 109.28125 94.691406 109.796875 94.601562 110.320312 94.535156 C 110.839844 94.46875 111.363281 94.429688 111.886719 94.417969 C 112.414062 94.40625 112.9375 94.425781 113.460938 94.46875 C 113.984375 94.511719 114.503906 94.582031 115.019531 94.679688 C 115.535156 94.777344 116.042969 94.902344 116.546875 95.054688 C 124.988281 97.816406 132.933594 101.621094 140.378906 106.460938 C 142.378906 107.664062 144.53125 108.445312 146.839844 108.800781 C 149.144531 109.15625 151.433594 109.066406 153.703125 108.523438 C 164.839844 106.039062 176.113281 104.792969 187.523438 104.792969 C 198.9375 104.792969 210.210938 106.039062 221.347656 108.523438 C 223.617188 109.066406 225.90625 109.15625 228.210938 108.800781 C 230.515625 108.445312 232.671875 107.664062 234.671875 106.460938 C 241.917969 101.761719 249.632812 98.027344 257.816406 95.257812 C 258.34375 95.097656 258.882812 94.964844 259.425781 94.863281 C 259.96875 94.757812 260.515625 94.683594 261.066406 94.640625 C 261.621094 94.59375 262.171875 94.582031 262.726562 94.59375 C 263.277344 94.609375 263.828125 94.65625 264.378906 94.730469 C 264.925781 94.804688 265.46875 94.90625 266.007812 95.039062 C 266.542969 95.171875 267.074219 95.332031 267.59375 95.519531 C 268.113281 95.710938 268.621094 95.925781 269.121094 96.171875 C 269.617188 96.414062 270.097656 96.6875 270.566406 96.980469 C 271.035156 97.277344 271.484375 97.597656 271.917969 97.941406 C 272.351562 98.285156 272.765625 98.652344 273.160156 99.042969 C 273.554688 99.429688 273.925781 99.839844 274.277344 100.269531 C 274.625 100.699219 274.953125 101.144531 275.253906 101.609375 C 275.558594 102.070312 275.835938 102.550781 276.085938 103.042969 C 276.335938 103.539062 276.558594 104.042969 276.757812 104.5625 C 276.953125 105.082031 277.121094 105.605469 277.261719 106.144531 C 277.402344 106.679688 277.511719 107.222656 277.59375 107.769531 C 279.027344 115.238281 279.027344 122.707031 277.59375 130.175781 C 277.335938 131.359375 277.207031 132.558594 277.207031 133.773438 C 277.207031 134.984375 277.332031 136.183594 277.589844 137.367188 C 277.84375 138.554688 278.21875 139.699219 278.71875 140.804688 C 279.21875 141.910156 279.828125 142.949219 280.546875 143.921875 C 282.503906 146.679688 284.230469 149.570312 285.726562 152.601562 C 287.226562 155.628906 288.476562 158.757812 289.476562 161.984375 C 290.480469 165.214844 291.222656 168.5 291.707031 171.84375 C 292.191406 175.191406 292.40625 178.554688 292.359375 181.933594 C 292.359375 237.8125 262.554688 255.273438 230.550781 261.457031 C 230.242188 261.515625 229.9375 261.59375 229.636719 261.6875 C 229.332031 261.78125 229.039062 261.890625 228.75 262.019531 C 228.460938 262.144531 228.183594 262.289062 227.910156 262.449219 C 227.636719 262.609375 227.375 262.78125 227.125 262.972656 C 226.871094 263.160156 226.632812 263.363281 226.402344 263.582031 C 226.171875 263.796875 225.957031 264.027344 225.753906 264.265625 C 225.550781 264.507812 225.359375 264.761719 225.1875 265.023438 C 225.011719 265.285156 224.851562 265.558594 224.710938 265.839844 C 224.566406 266.121094 224.4375 266.40625 224.328125 266.703125 C 224.21875 266.996094 224.125 267.296875 224.046875 267.605469 C 223.96875 267.910156 223.910156 268.21875 223.871094 268.53125 C 223.828125 268.84375 223.804688 269.160156 223.796875 269.476562 C 223.792969 269.789062 223.804688 270.105469 223.835938 270.417969 C 223.863281 270.734375 223.914062 271.042969 223.976562 271.351562 C 224.042969 271.660156 224.125 271.964844 224.226562 272.265625 C 224.324219 272.5625 224.441406 272.855469 224.574219 273.140625 C 227.441406 279.71875 228.816406 286.589844 228.695312 293.761719 L 228.695312 339.058594 C 228.695312 339.058594 231.03125 348.335938 239.410156 346.960938 Z M 239.410156 346.960938 " fill-opacity="1" fill-rule="nonzero"/></g></svg>