<svg xmlns="http://www.w3.org/2000/svg" xmlns:xlink="http://www.w3.org/1999/xlink" width="500" zoomAndPan="magnify" viewBox="0 0 375 374.999991" height="500" preserveAspectRatio="xMidYMid meet" version="1.0"><defs><clipPath id="172de35b74"><path d="M 28.738281 28.738281 L 345.988281 28.738281 L 345.988281 345.988281 L 28.738281 345.988281 Z M 28.738281 28.738281 " clip-rule="nonzero"/></clipPath></defs><g clip-path="url(#172de35b74)"><path fill="#0d6efc" d="M 187.292969 57.34375 C 229.628906 57.34375 234.632812 57.480469 251.382812 58.246094 C 266.816406 58.941406 275.226562 61.515625 280.855469 63.738281 C 288.226562 66.589844 293.507812 70.0625 299.070312 75.625 C 304.628906 81.183594 308.035156 86.46875 310.957031 93.835938 C 313.109375 99.398438 315.683594 107.808594 316.445312 123.308594 C 317.210938 140.0625 317.351562 145.066406 317.351562 187.398438 C 317.351562 229.730469 317.210938 234.734375 316.445312 251.488281 C 315.75 266.921875 313.179688 275.332031 310.957031 280.960938 C 308.105469 288.328125 304.628906 293.613281 299.070312 299.171875 C 293.507812 304.734375 288.226562 308.140625 280.855469 311.058594 C 275.296875 313.214844 266.886719 315.785156 251.382812 316.550781 C 234.632812 317.316406 229.628906 317.453125 187.292969 317.453125 C 144.960938 317.453125 139.957031 317.316406 123.207031 316.550781 C 107.773438 315.855469 99.363281 313.285156 93.730469 311.058594 C 86.363281 308.210938 81.082031 304.734375 75.519531 299.171875 C 69.960938 293.613281 66.554688 288.328125 63.632812 280.960938 C 61.480469 275.398438 58.90625 266.988281 58.140625 251.488281 C 57.378906 234.734375 57.238281 229.730469 57.238281 187.398438 C 57.238281 145.066406 57.378906 140.0625 58.140625 123.308594 C 58.835938 107.878906 61.410156 99.46875 63.632812 93.835938 C 66.484375 86.46875 69.960938 81.183594 75.519531 75.625 C 81.082031 70.0625 86.363281 66.65625 93.730469 63.738281 C 99.292969 61.582031 107.703125 59.011719 123.207031 58.246094 C 139.957031 57.480469 144.960938 57.34375 187.292969 57.34375 M 187.292969 28.773438 C 144.199219 28.773438 138.84375 28.984375 121.882812 29.746094 C 104.992188 30.511719 93.453125 33.222656 83.375 37.117188 C 72.949219 41.148438 64.121094 46.570312 55.292969 55.398438 C 46.535156 64.226562 41.113281 73.050781 37.082031 83.480469 C 33.1875 93.558594 30.476562 105.097656 29.710938 121.988281 C 28.949219 138.878906 28.738281 144.300781 28.738281 187.328125 C 28.738281 230.425781 28.949219 235.777344 29.710938 252.738281 C 30.476562 269.632812 33.1875 281.167969 37.082031 291.25 C 41.113281 301.675781 46.535156 310.503906 55.363281 319.332031 C 64.191406 328.160156 73.019531 333.582031 83.445312 337.613281 C 93.523438 341.503906 105.0625 344.214844 121.953125 344.980469 C 138.84375 345.746094 144.265625 345.953125 187.363281 345.953125 C 230.460938 345.953125 235.8125 345.746094 252.773438 344.980469 C 269.664062 344.214844 281.203125 341.503906 291.285156 337.613281 C 301.710938 333.582031 310.539062 328.160156 319.367188 319.332031 C 328.195312 310.503906 333.617188 301.675781 337.648438 291.25 C 341.539062 281.167969 344.25 269.632812 345.015625 252.738281 C 345.78125 235.847656 345.988281 230.425781 345.988281 187.328125 C 345.988281 144.230469 345.78125 138.878906 345.015625 121.917969 C 344.25 105.027344 341.539062 93.488281 337.648438 83.410156 C 333.617188 72.984375 328.195312 64.15625 319.367188 55.328125 C 310.539062 46.5 301.710938 41.078125 291.285156 37.046875 C 281.203125 33.152344 269.664062 30.441406 252.773438 29.675781 C 235.8125 28.984375 230.390625 28.773438 187.292969 28.773438 " fill-opacity="1" fill-rule="nonzero"/></g><path fill="#0d6efc" d="M 187.292969 105.929688 C 142.320312 105.929688 105.898438 142.355469 105.898438 187.328125 C 105.898438 232.304688 142.390625 268.796875 187.363281 268.796875 C 232.339844 268.796875 268.832031 232.371094 268.832031 187.328125 C 268.761719 142.355469 232.269531 105.929688 187.292969 105.929688 M 187.292969 240.226562 C 158.101562 240.226562 134.464844 216.59375 134.464844 187.398438 C 134.464844 158.203125 158.101562 134.570312 187.292969 134.570312 C 216.488281 134.570312 240.125 158.203125 240.125 187.398438 C 240.191406 216.523438 216.488281 240.226562 187.292969 240.226562 " fill-opacity="1" fill-rule="nonzero"/><path fill="#0d6efc" d="M 291.003906 102.734375 C 291.003906 113.230469 282.457031 121.78125 271.960938 121.78125 C 261.464844 121.78125 252.914062 113.230469 252.914062 102.734375 C 252.914062 92.238281 261.464844 83.6875 271.960938 83.6875 C 282.457031 83.6875 291.003906 92.167969 291.003906 102.734375 " fill-opacity="1" fill-rule="nonzero"/></svg>