<svg xmlns="http://www.w3.org/2000/svg" xmlns:xlink="http://www.w3.org/1999/xlink" width="500" zoomAndPan="magnify" viewBox="0 0 375 374.999991" height="500" preserveAspectRatio="xMidYMid meet" version="1.0"><defs><clipPath id="103f3471e9"><path d="M 27.980469 27.378906 L 346 27.378906 L 346 347.628906 L 27.980469 347.628906 Z M 27.980469 27.378906 " clip-rule="nonzero"/></clipPath></defs><g clip-path="url(#103f3471e9)"><path fill="#0d6efc" d="M 59.964844 183.089844 C 59.964844 175.363281 61.070312 168.738281 62.171875 162.113281 C 63.273438 152.179688 65.480469 144.453125 68.789062 136.722656 L 72.097656 130.101562 C 72.097656 127.890625 73.203125 126.789062 74.304688 124.582031 C 75.40625 123.476562 75.40625 121.269531 76.511719 120.164062 C 78.714844 115.75 80.921875 112.4375 83.128906 110.230469 C 85.335938 106.917969 87.539062 103.605469 89.746094 100.292969 C 94.15625 95.878906 97.464844 91.460938 101.878906 88.148438 C 110.703125 80.421875 120.628906 73.796875 130.554688 68.277344 C 153.714844 56.136719 179.085938 51.71875 205.554688 55.03125 C 217.6875 56.136719 226.511719 59.445312 237.539062 62.757812 C 238.644531 63.863281 239.746094 63.863281 240.847656 63.863281 C 245.261719 66.070312 249.671875 68.277344 254.085938 70.488281 C 260.703125 74.902344 266.214844 79.316406 272.835938 83.734375 L 282.761719 93.667969 C 284.964844 95.878906 287.171875 98.085938 289.378906 100.292969 C 290.480469 101.398438 291.585938 103.605469 292.6875 104.710938 C 292.6875 105.8125 293.789062 105.8125 293.789062 106.917969 C 297.097656 110.230469 301.511719 117.957031 303.714844 121.269531 C 308.128906 130.101562 308.128906 132.308594 312.539062 141.140625 C 320.261719 163.21875 321.363281 189.714844 315.847656 212.898438 C 312.539062 226.144531 312.539062 225.039062 308.128906 237.183594 C 305.921875 240.496094 303.714844 243.808594 302.613281 247.121094 C 300.40625 250.429688 298.203125 253.742188 295.996094 257.054688 C 294.894531 259.261719 293.789062 260.367188 292.6875 261.46875 L 289.378906 266.992188 C 286.070312 269.199219 281.65625 274.71875 279.453125 276.925781 L 272.835938 282.445312 C 270.628906 285.757812 266.214844 286.863281 264.011719 290.171875 C 258.496094 293.484375 249.671875 299.003906 243.054688 301.214844 C 240.847656 302.316406 239.746094 303.421875 237.539062 303.421875 C 230.921875 306.734375 219.894531 310.042969 212.171875 311.148438 C 207.761719 312.253906 202.246094 312.253906 197.835938 312.253906 L 190.113281 313.355469 C 174.671875 313.355469 161.4375 310.042969 147.097656 305.628906 C 142.6875 304.523438 137.171875 302.316406 133.863281 300.109375 L 120.628906 293.484375 C 119.523438 292.382812 118.421875 291.277344 117.320312 291.277344 L 106.289062 295.691406 C 101.878906 296.796875 96.363281 297.902344 91.953125 300.109375 C 85.335938 302.316406 78.714844 304.523438 73.203125 305.628906 C 70.996094 306.734375 69.894531 306.734375 68.789062 307.835938 C 68.789062 305.628906 69.894531 302.316406 70.996094 301.214844 L 74.304688 292.382812 C 75.40625 286.863281 78.714844 280.238281 79.820312 274.71875 C 80.921875 271.40625 84.230469 262.574219 84.230469 259.261719 L 77.613281 248.222656 C 77.613281 247.121094 76.511719 247.121094 76.511719 246.015625 C 75.40625 243.808594 74.304688 241.597656 73.203125 239.390625 L 64.378906 217.3125 C 62.171875 206.273438 59.964844 195.234375 59.964844 183.089844 Z M 33.496094 179.777344 C 33.496094 189.714844 34.597656 201.855469 35.703125 210.6875 C 37.90625 220.625 42.320312 236.078125 46.730469 246.015625 C 48.9375 250.429688 51.144531 254.847656 53.347656 259.261719 C 57.761719 265.886719 55.554688 262.574219 53.347656 272.511719 L 44.523438 297.902344 C 42.320312 304.523438 40.113281 311.148438 37.90625 317.773438 L 29.085938 345.371094 C 27.980469 346.476562 27.980469 346.476562 27.980469 347.578125 C 30.1875 347.578125 54.453125 339.851562 57.761719 338.746094 L 87.539062 328.8125 C 93.054688 327.707031 101.878906 323.292969 107.394531 322.1875 C 112.90625 321.085938 112.90625 318.875 116.214844 321.085938 C 117.320312 322.1875 119.523438 322.1875 120.628906 323.292969 C 122.835938 324.394531 125.039062 325.5 127.246094 326.605469 L 131.65625 328.8125 C 132.761719 328.8125 133.863281 328.8125 133.863281 328.8125 C 137.171875 329.914062 140.480469 332.125 143.789062 332.125 C 152.613281 334.332031 155.921875 335.4375 164.746094 337.644531 C 179.085938 339.851562 194.523438 339.851562 208.863281 338.746094 C 212.171875 337.644531 214.378906 337.644531 216.585938 336.539062 C 219.894531 336.539062 222.097656 336.539062 225.40625 335.4375 C 235.335938 333.226562 245.261719 329.914062 254.085938 325.5 C 256.289062 324.394531 258.496094 323.292969 260.703125 322.1875 C 261.804688 322.1875 262.90625 321.085938 264.011719 321.085938 L 272.835938 315.5625 C 276.144531 313.355469 279.453125 311.148438 282.761719 307.835938 C 284.964844 306.734375 288.273438 304.523438 289.378906 303.421875 C 290.480469 302.316406 291.585938 301.214844 292.6875 301.214844 C 293.789062 300.109375 293.789062 299.003906 294.894531 297.902344 L 311.4375 281.34375 C 311.4375 280.238281 311.4375 280.238281 312.539062 279.132812 L 315.847656 275.820312 C 319.15625 271.40625 322.464844 264.78125 324.671875 260.367188 L 335.703125 237.183594 C 340.113281 226.144531 342.320312 214 344.523438 201.855469 C 346.730469 181.984375 344.523438 161.011719 340.113281 141.140625 C 339.011719 138.933594 337.90625 136.722656 337.90625 133.410156 C 335.703125 128.996094 333.496094 124.582031 332.394531 120.164062 C 331.289062 119.058594 331.289062 117.957031 330.1875 116.851562 C 330.1875 115.75 329.085938 114.644531 329.085938 113.539062 L 318.054688 95.878906 C 314.746094 90.359375 311.4375 85.941406 308.128906 81.527344 C 307.023438 80.421875 307.023438 80.421875 305.921875 79.316406 C 304.820312 77.109375 302.613281 76.007812 300.40625 73.796875 C 298.203125 71.589844 295.996094 69.382812 293.789062 67.175781 C 292.6875 66.070312 292.6875 66.070312 291.585938 64.964844 L 282.761719 58.34375 C 281.65625 58.34375 281.65625 57.238281 280.554688 56.136719 C 276.144531 53.925781 272.835938 50.617188 268.421875 48.40625 L 262.90625 45.09375 C 260.703125 45.09375 258.496094 42.886719 256.289062 41.785156 C 254.085938 41.785156 251.878906 40.679688 249.671875 39.574219 L 227.613281 31.847656 C 225.40625 31.847656 222.097656 30.742188 219.894531 30.742188 C 208.863281 27.433594 196.730469 27.433594 185.703125 27.433594 C 171.363281 27.433594 157.023438 29.640625 144.894531 34.054688 L 137.171875 36.265625 C 134.964844 37.367188 132.761719 38.472656 130.554688 38.472656 C 126.144531 40.679688 121.730469 42.886719 117.320312 45.09375 C 115.113281 46.199219 111.804688 48.40625 108.496094 50.617188 C 104.085938 52.824219 95.261719 58.34375 91.953125 61.65625 L 76.511719 76.007812 L 66.585938 88.148438 C 63.273438 91.460938 61.070312 95.878906 58.863281 99.1875 C 56.65625 102.5 54.453125 104.710938 53.347656 108.019531 L 50.039062 114.644531 C 46.730469 120.164062 44.523438 125.683594 42.320312 131.203125 C 42.320312 132.308594 42.320312 133.410156 41.214844 134.515625 C 39.011719 143.347656 35.703125 154.386719 35.703125 162.113281 C 34.597656 167.632812 33.496094 174.257812 33.496094 179.777344 Z M 33.496094 179.777344 " fill-opacity="1" fill-rule="evenodd"/></g><path fill="#0d6efc" d="M 111.804688 144.453125 C 111.804688 151.074219 112.90625 157.699219 115.113281 163.21875 C 116.214844 165.425781 116.214844 168.738281 117.320312 169.84375 C 121.730469 178.675781 122.835938 180.882812 128.347656 188.609375 L 136.070312 199.648438 C 136.070312 200.753906 137.171875 201.855469 137.171875 202.960938 C 138.273438 204.066406 139.378906 204.066406 139.378906 205.167969 C 140.480469 206.273438 141.585938 207.375 141.585938 208.480469 L 148.203125 216.207031 C 151.511719 219.519531 161.4375 229.457031 165.847656 232.769531 C 166.953125 232.769531 168.054688 233.871094 168.054688 234.976562 C 169.15625 234.976562 170.261719 236.078125 171.363281 236.078125 C 172.464844 237.183594 173.570312 238.289062 173.570312 238.289062 C 177.980469 241.597656 182.394531 243.808594 185.703125 246.015625 C 187.90625 247.121094 190.113281 248.222656 192.320312 249.328125 L 206.65625 254.847656 C 208.863281 255.949219 211.070312 257.054688 213.273438 257.054688 C 226.511719 262.574219 227.613281 262.574219 240.847656 260.367188 C 241.953125 260.367188 243.054688 260.367188 245.261719 259.261719 C 251.878906 257.054688 256.289062 254.847656 261.804688 250.429688 C 264.011719 248.222656 266.214844 246.015625 267.320312 242.703125 C 268.421875 240.496094 270.628906 231.664062 270.628906 227.25 C 270.628906 223.9375 270.628906 221.726562 265.113281 219.519531 C 262.90625 219.519531 254.085938 214 252.980469 212.898438 C 248.570312 211.792969 235.335938 202.960938 232.023438 202.960938 C 228.714844 202.960938 226.511719 206.273438 224.304688 209.585938 C 223.203125 210.6875 223.203125 211.792969 222.097656 212.898438 C 220.996094 214 219.894531 214 219.894531 215.105469 C 218.789062 216.207031 217.6875 216.207031 217.6875 217.3125 C 215.480469 218.417969 214.378906 220.625 212.171875 222.832031 C 209.964844 223.9375 207.761719 223.9375 205.554688 222.832031 L 186.804688 211.792969 C 180.1875 206.273438 177.980469 205.167969 171.363281 198.546875 C 166.953125 194.128906 161.4375 187.503906 158.128906 181.984375 C 157.023438 180.882812 151.511719 172.050781 151.511719 169.84375 C 151.511719 167.632812 155.921875 164.324219 157.023438 162.113281 L 161.4375 157.699219 C 170.261719 148.867188 164.746094 145.554688 161.4375 134.515625 C 159.230469 128.996094 157.023438 121.269531 154.820312 115.75 C 152.613281 109.125 151.511719 108.019531 144.894531 108.019531 C 140.480469 108.019531 132.761719 104.710938 126.144531 112.4375 C 126.144531 112.4375 125.039062 112.4375 125.039062 113.539062 C 122.835938 115.75 120.628906 117.957031 119.523438 120.164062 C 115.113281 126.789062 111.804688 135.621094 111.804688 144.453125 Z M 111.804688 144.453125 " fill-opacity="1" fill-rule="evenodd"/></svg>